# xmcd
#
# Track frame offsets: 
#        150
#        25088
#        51489
#        85382
#        115420
#        145783
#        174621
#
# Disc length: 2760 seconds
#
# Revision: 1
# Processed by: cddbd v1.5.1PL0 Copyright (c) Steve Scherf et al.
# Submitted via: ExactAudioCopy v0.95a3
#
DISCID=5e0ac607
DTITLE=Andrew Hill - Dance With Death
DYEAR=1968
DGENRE=Jazz
TTITLE0=Yellow Violet
TTITLE1=Partitions
TTITLE2=Fish 'N Rice
TTITLE3=Dance With Death
TTITLE4=Love Nocturne
TTITLE5=Black Sabbath
TTITLE6=Dance With Death (alt tk)
EXTD=Blue Note: 7243 4 73160 2 9 (LT-1030]\nCharles Tolliver, tpt   Jo
EXTD=e Farrell, tsax, ssax   Andrew Hill, p   Victor Sproles, b   Bill
EXTD=y Higgins, d\n\nRec. Oct. 11, 1968, Van Gelder Studio, Englewood 
EXTD=Cliffs, N.J.
EXTT0=
EXTT1=
EXTT2=
EXTT3=
EXTT4=
EXTT5=
EXTT6=
PLAYORDER=
